        <svg xmlns="https://www.w3.org/2000/svg" viewBox="0 0 1440 320">
            <path fill="#111111" fill-opacity="1" d="M0,96L30,106.7C60,117,120,139,180,154.7C240,171,300,181,360,186.7C420,192,480,192,540,181.3C600,171,660,149,720,154.7C780,160,840,192,900,208C960,224,1020,224,1080,208C1140,192,1200,160,1260,138.7C1320,117,1380,107,1410,101.3L1440,96L1440,320L1410,320C1380,320,1320,320,1260,320C1200,320,1140,320,1080,320C1020,320,960,320,900,320C840,320,780,320,720,320C660,320,600,320,540,320C480,320,420,320,360,320C300,320,240,320,180,320C120,320,60,320,30,320L0,320Z"></path>
        </svg>